<svg id="Layer_1" data-name="Layer 1" xmlns="http://www.w3.org/2000/svg" xmlns:xlink="http://www.w3.org/1999/xlink" viewBox="0 0 1024 1024"><defs><style>.cls-1{fill:url(#linear-gradient);}.cls-2{opacity:0.9;}.cls-3{fill:#e6e6e6;}.cls-4{fill:#fff;}.cls-5{fill:#ffc40d;}.cls-6{fill:none;}</style><linearGradient id="linear-gradient" x1="500" y1="990.26" x2="500" y2="0.27" gradientUnits="userSpaceOnUse"><stop offset="0" stop-color="#e52d27"/><stop offset="1" stop-color="#e52d27"/></linearGradient></defs><title>cook king_icon</title><g class="cls-2"><path class="cls-3" d="M707.36,679.15v.26a1.22,1.22,0,0,1-.06.46,22.92,22.92,0,0,1-.6,4.7c-.13.39-.2.79-.33,1.25a16.67,16.67,0,0,1-2.84,5.09,17.27,17.27,0,0,1-2.18,2.18c-.66.46-1.32.86-2,1.26a3.46,3.46,0,0,1-.67.33,14.11,14.11,0,0,1-1.45.53,15.8,15.8,0,0,1-4.62.72l-16.06-.06c15.13-3.7,14.8-29.74-1.13-32.38,12.43-.14,19.5-.2,19.5-.2a13.16,13.16,0,0,1,8.52,4.69,15.73,15.73,0,0,1,2.91,5.29c.2.66.4,1.32.53,2A25.92,25.92,0,0,1,707.36,679.15Z"/><path class="cls-3" d="M700.62,514.14l-9.91,142.8v.33l-.07.47-.2,2.84c-5.81-.07-11.63-.07-17.44-.07l9.32-146.37A139.69,139.69,0,0,0,700.62,514.14Z"/><path class="cls-3" d="M838,355.61c-.33,13.68-1.79,27.36-5.49,40.57a152.55,152.55,0,0,1-42.16,69.59,167.49,167.49,0,0,1-33.57,23.92,161.32,161.32,0,0,1-39,14.07l-1.19.2a155.29,155.29,0,0,0-7.13-298c2.77.46,5.55,1,8.32,1.45,13.48,3.37,26.9,7.34,38.93,14.21a149.1,149.1,0,0,1,33.57,24c5.22,4.43,9.45,9.91,14.14,14.93,4,5.62,8.39,10.91,11.63,17C830.61,300.82,837.74,328.25,838,355.61Z"/><path class="cls-4" d="M676.57,695.87l-88.88-.4-104.94-1.12-104.94-1.19-52.54-.27a29.54,29.54,0,0,1-5.75-.39,10.35,10.35,0,0,1-4.42-2.38,13.92,13.92,0,0,1-4.17-9.52,15.54,15.54,0,0,1,2.78-10.24,10.57,10.57,0,0,1,8.85-4.23h3.17c101.57-.26,289-2,349.71-2.64C691.37,666.13,691.7,692.17,676.57,695.87Z"/><path class="cls-4" d="M682.32,514.14,673,660.51a1.23,1.23,0,0,0-.66,0c-115.18-.79-230.23-.53-345.42-.86h-1.38l-.27-3.37-.39-4.29-.53-6.08L313,514.34a133.33,133.33,0,0,0,19.89-.8,153.83,153.83,0,0,0,65-23.19c1.45-.86,2.77-1.78,4.16-2.71,1.72-1.19,3.44-2.44,5.09-3.7.73.53,1.39,1.06,2.11,1.52a161.38,161.38,0,0,0,32.38,19.1c1.79.79,3.64,1.52,5.49,2.18a157.57,157.57,0,0,0,119.81-2.18,164,164,0,0,0,25.24-13.95c3.17-2.11,6.28-4.36,9.25-6.67A152.2,152.2,0,0,0,660.64,511c5,1.06,10.05,1.92,15.07,2.51C677.89,513.81,680.14,514,682.32,514.14Z"/><path class="cls-4" d="M709.48,205.93c-.07,0-.14-.07-.2-.07a91.43,91.43,0,0,0-12.1-1.38,147.7,147.7,0,0,0-20.94-.4A153.38,153.38,0,0,0,634.87,212a167.64,167.64,0,0,0-38.06,18.9c-3.77-1.92-7.54-3.77-11.3-5.49A217,217,0,0,0,551.41,213c-4.76-1.19-9.59-2.25-14.41-3.17h-.07a175,175,0,0,0-32.64-2.91A181,181,0,0,0,457.17,213a225.08,225.08,0,0,0-45.4,17.91c-3.3-2.18-6.67-4.3-10.17-6.21a162.93,162.93,0,0,0-23.26-10.91c-1.59-.66-3.11-1.25-4.7-1.78a149.65,149.65,0,0,0-41.3-7.86h-.53a131.13,131.13,0,0,0-20.41.33c-7,.26-13.82,1.71-20.62,3-13.48,3.3-26.9,7.34-38.93,14.14-.92.46-1.85,1-2.77,1.52a146.63,146.63,0,0,0-17,10.91,101,101,0,0,0-8.93,7.13c-1.65,1.39-3.3,2.91-4.89,4.43-5.22,4.43-9.44,9.91-14.14,14.93-2.31,3.37-4.89,6.61-7.2,10a55.69,55.69,0,0,0-3.44,5.29c-.33.53-.66,1.12-1,1.72-14.54,23.32-21.67,50.75-21.94,78.11.33,13.68,1.72,27.36,5.55,40.57s9.06,25.91,16.33,37.6a152.5,152.5,0,0,0,59.34,55.84c11.76,6,24.25,11,37.33,13.68a14.29,14.29,0,0,0,1.66.4c2.18.46,4.29.86,6.47,1.25h.07c1.72.33,3.44.6,5.15.8a15,15,0,0,0,1.85.26c.6.07,1.19.2,1.85.27s1.59.19,2.38.26c.27,0,.47.07.73.07,1,.13,2,.19,3,.26a133.59,133.59,0,0,0,20,.26c1.26-.06,2.51-.13,3.77-.26a.08.08,0,0,0,.13,0,148.81,148.81,0,0,0,37.47-7.67,167.56,167.56,0,0,0,20.49-8.65C361.62,463.78,335.91,405,349,352.7l.06.07c0,.72.07,1.32.13,2,0,.33.07.6.07.93.13,2.25.27,4.43.53,6.61v.2c.13,1.52.33,3,.53,4.56.06.72.2,1.38.33,2.11s.2,1.52.33,2.31c.07.27.07.47.13.73.2,1.32.46,2.71.73,4.1.2,1.12.46,2.31.72,3.5s.53,2.64.86,3.9c.53,2.18,1.06,4.23,1.72,6.34.66,2.45,1.46,4.89,2.25,7.27a135,135,0,0,0,5.55,14.14c1,2.32,2.11,4.63,3.24,6.88s2.31,4.49,3.57,6.67,2.51,4.36,3.83,6.48c1.65,2.57,3.37,5.15,5.09,7.66,2.18,3,4.36,5.88,6.74,8.72a50.92,50.92,0,0,0,3.57,4.17c.79,1,1.65,1.91,2.51,2.84,1.78,1.92,3.63,3.83,5.55,5.68,2.91,2.84,5.95,5.62,9.12,8.2a163.88,163.88,0,0,0,15.53,11.36,152.81,152.81,0,0,0,82.6,24.12,142.21,142.21,0,0,0,24.91-2l.4-.07C623.44,480.17,654,375.3,658.86,355.81c-.07-.07-.07-.14,0-.14a9.2,9.2,0,0,0,.39-1.52c.14-.46.2-.79.27-1a133.06,133.06,0,0,1-.86,31.58,150.84,150.84,0,0,1-39.78,83.14,141.23,141.23,0,0,1-17,15.72,164,164,0,0,0,33.05,15.66,149.66,149.66,0,0,0,41.3,7.87c2.18.13,4.42.2,6.54.26a140.8,140.8,0,0,0,18.37-1l1.45-.2L704,506c4.16-.47,8.33-1.13,12.43-1.92.06,0,.13-.07.19-.07a155.29,155.29,0,0,0-7.13-298ZM325,267.19a73.9,73.9,0,0,0-37.93,12A74.67,74.67,0,0,0,260,310.34a75.47,75.47,0,0,0-3.57,55.58c-.52-1.26-1.05-2.51-1.58-3.77-2.18-6.41-4.1-12.89-4.49-19.63a72.54,72.54,0,0,1,.85-20c.47-3.3,1.59-6.48,2.38-9.71.8-1.92,1.46-3.9,2.25-5.82a31.47,31.47,0,0,1,1.59-3.44,73.15,73.15,0,0,1,26-29.6,80.25,80.25,0,0,1,18-8.53,82.77,82.77,0,0,1,19.69-3.3c2.84,0,5.75.07,8.59.33a65.16,65.16,0,0,1,11.23,1.79,80.61,80.61,0,0,1,18.64,7.33,78,78,0,0,1,16.06,12.16l.39.46A75.08,75.08,0,0,0,325,267.19Z"/><path class="cls-3" d="M406.69,483.54c-1.92,1.19-3.84,2.32-5.75,3.37-2.25,1.26-4.5,2.45-6.74,3.64C361.62,463.78,335.91,405,349,352.7l.06.07c-.06.72-.13,1.32-.2,2v.53c-.13,1.46-.19,3-.26,4.43-.13,3.9-.07,7.86.07,11.83.13,2.38.33,4.69.52,7.07.14,1.59.34,3.11.53,4.69.6,4.5,1.39,8.92,2.38,13.35.33,1.72.73,3.37,1.19,5.09.46,1.92,1,3.83,1.52,5.68.66,2.18,1.32,4.3,2.05,6.41a152.75,152.75,0,0,0,32.84,53.93c2.65,2.84,5.36,5.61,8.26,8.26S403.65,481.16,406.69,483.54Z"/><path class="cls-3" d="M659.52,353.1c-.13,2.31-.27,4.62-.46,6.93v.27a134.73,134.73,0,0,1-2,14.54c-.06.66-.26,1.39-.39,2.11-.4,1.92-.8,3.83-1.26,5.75-.46,2.12-1.06,4.16-1.65,6.28-.66,2.51-1.45,5-2.25,7.47q-.79,2.48-1.78,4.95a157.24,157.24,0,0,1-23.33,42.49c-1.19,1.52-2.38,3-3.63,4.56-.86,1.06-1.79,2.05-2.71,3.11a13.45,13.45,0,0,1-.93,1.12c-.79.86-1.58,1.79-2.38,2.58-1.65,1.85-3.43,3.63-5.22,5.35a153,153,0,0,1-65.22,37.8l-.4.2a136.7,136.7,0,0,1-16.32,3.63C626.54,465,657.73,361,659.52,353.1Z"/></g><g class="cls-2"><path class="cls-5" d="M386.13,206,329.7,262.43c-2.84-.26-5.75-.33-8.59-.33a82.77,82.77,0,0,0-19.69,3.3,80.25,80.25,0,0,0-18,8.53,73.15,73.15,0,0,0-26,29.6,31.47,31.47,0,0,0-1.59,3.44c-14.08-10.31-43.95-23.59-62.32-31.19-5.35-2.18-9.71-3.9-12.49-5a10.61,10.61,0,0,1-9.78,5,10.22,10.22,0,1,1,11-9.32,9.29,9.29,0,0,1-.93,3.57,103.35,103.35,0,0,0,15.6.39c22.53-1.05,40.64-10,26.23-29.34a58.68,58.68,0,0,0-7.79-8.59,10.33,10.33,0,0,1-9.12,4.16,10.22,10.22,0,0,1-9.25-11.1,10.07,10.07,0,0,1,11-9.18,10.36,10.36,0,0,1,9.32,11,11.56,11.56,0,0,1-1.32,4.1c6.14,2,11.5,2.78,16.06,2.45,8.52-.47,14.2-4.5,17-10.91,5.48-12.75-.46-34.82-17.58-56a10.17,10.17,0,0,1-14.07-14.67,10,10,0,0,1,8.12-2.91,10.18,10.18,0,0,1,9.26,11,10.33,10.33,0,0,1-2.71,5.94c37.27,30.2,77.58,25.64,64.49-15.52a10.85,10.85,0,0,1-5.95,1.32,10.36,10.36,0,0,1-9.31-11,10.23,10.23,0,0,1,11.1-9.25,10.1,10.1,0,0,1,9.19,11.1,9.61,9.61,0,0,1-4.1,7.27c30.46,32.51,40.64-2.51,37.53-34A10.21,10.21,0,1,1,331.55,97a10,10,0,0,1,9.12,11,9.62,9.62,0,0,1-5,7.93c5.22,13.48,27,66.48,40.24,79.7C382,189.54,392.35,199.85,386.13,206Z"/></g><g class="cls-2"><path class="cls-3" d="M774.82,772.36c-2.36,27.63-30.19,98.29-92.59,122.31,49.63-29.78,77.81-85,92-121.82C774.41,772.71,774.62,772.5,774.82,772.36Z"/><path class="cls-4" d="M774.2,772.85c-14.16,36.85-42.34,92-92,121.82-.07.06-.14.13-.21.06a121.9,121.9,0,0,1-38.11,8c-71.22,3.47-120.29-29-145.35-64.83-.07-.07-.14-.07-.14-.14a2.41,2.41,0,0,0-.35.55l-.06.07c-19.44,27.56-53,53-99.82,61.57h-.14L398,900a196.52,196.52,0,0,1-45.05,2.71c-89.54-4.44-129.24-97.6-130.91-130.36,1.67,1.25,3.4,2.57,5.28,3.89,9.16,6,21.65,10.76,38.45,11.59,43.8,2.22,82.81-65.8,140.21-76.08a75.09,75.09,0,0,1,18.61-1.32c16.86.84,39.63,4.65,70.31,33.81,1.18,1.18,2.36,2.29,3.54,3.47l.42-.42c32.28-31.86,56.15-36,73.44-36.86,67.88-3.4,110.43,79.83,158.81,77.4,16.8-.83,29.23-5.62,38.46-11.59C771.21,775.07,772.74,774,774.2,772.85Z"/></g><path class="cls-6" d="M652.59,893.59c.06.06.12,0,.18-.06"/><path class="cls-6" d="M414.08,898l.06-.06h.11"/><path class="cls-6" d="M498.07,846.26l.06-.06a2.48,2.48,0,0,1,.41-.35"/><path class="cls-6" d="M498.77,769.78c-1-.87-2.16-1.69-3.32-2.56"/></svg>